<svg width="48" height="48" viewBox="0 0 48 48" fill="none" xmlns="http://www.w3.org/2000/svg">
<path d="M2.49609 16.9414C3.87424 16.9416 4.99121 18.0593 4.99121 19.4375V45.2188C4.99102 46.5968 3.87413 47.7137 2.49609 47.7139C1.11788 47.7139 0.000188067 46.5969 0 45.2188V19.4375C0 18.0592 1.11776 16.9414 2.49609 16.9414ZM2.49609 37.1504C1.11776 37.1504 0 38.3843 0 39.9062C7.67789e-05 41.4281 1.11781 42.6621 2.49609 42.6621C3.87421 42.6619 4.99113 41.428 4.99121 39.9062C4.99121 38.3844 3.87426 37.1506 2.49609 37.1504Z" fill="#000000"/>
<path d="M13.2485 3.38867C14.6267 3.38889 15.7437 4.50656 15.7437 5.88477V44.9854C15.7436 46.3635 14.6266 47.4803 13.2485 47.4805C11.8703 47.4805 10.7525 46.3636 10.7524 44.9854V5.88477C10.7524 4.50643 11.8702 3.38867 13.2485 3.38867ZM13.2485 27.7305C11.8702 27.7305 10.7524 28.9644 10.7524 30.4863C10.7525 32.0082 11.8702 33.2422 13.2485 33.2422C14.6267 33.242 15.7436 32.0081 15.7437 30.4863C15.7437 28.9645 14.6267 27.7307 13.2485 27.7305Z" fill="#000000"/>
<path d="M23.9985 13.5527C25.3767 13.553 26.4937 14.6706 26.4937 16.0488V45.5039C26.4937 46.8821 25.3767 47.9998 23.9985 48C22.6202 48 21.5024 46.8822 21.5024 45.5039V16.0488C21.5024 14.6705 22.6202 13.5527 23.9985 13.5527ZM23.9985 33.3027C22.6202 33.3027 21.5024 34.5366 21.5024 36.0586C21.5025 37.5805 22.6202 38.8145 23.9985 38.8145C25.3767 38.8142 26.4936 37.5804 26.4937 36.0586C26.4937 34.5368 25.3767 33.303 23.9985 33.3027Z" fill="#000000"/>
<path d="M34.7524 4.51758C36.1306 4.51779 37.2476 5.63547 37.2476 7.01367V45.1953C37.2476 46.5735 36.1306 47.6912 34.7524 47.6914C33.3741 47.6914 32.2563 46.5736 32.2563 45.1953V7.01367C32.2563 5.63534 33.3741 4.51758 34.7524 4.51758ZM34.7524 16.459C33.3741 16.459 32.2563 17.6929 32.2563 19.2148C32.2564 20.7367 33.3742 21.9707 34.7524 21.9707C36.1306 21.9705 37.2475 20.7366 37.2476 19.2148C37.2476 17.693 36.1306 16.4592 34.7524 16.459Z" fill="#000000"/>
<path d="M45.5049 0C46.883 0.000215929 48 1.11789 48 2.49609V44.8115C48 46.1897 46.883 47.3074 45.5049 47.3076C44.1265 47.3076 43.0088 46.1899 43.0088 44.8115V2.49609C43.0088 1.11776 44.1265 0 45.5049 0ZM45.5049 24.3418C44.1265 24.3418 43.0088 25.5757 43.0088 27.0977C43.0089 28.6196 44.1266 29.8535 45.5049 29.8535C46.883 29.8533 47.9999 28.6194 48 27.0977C48 25.5758 46.883 24.342 45.5049 24.3418Z" fill="#000000"/>
</svg>
